G04 Layer_Color=65535*
%FSLAX25Y25*%
%MOIN*%
G70*
G01*
G75*
%ADD19C,0.00984*%
%ADD20C,0.01000*%
D19*
X162402Y-15748D02*
Y-14764D01*
X152559Y-15748D02*
Y-14764D01*
X161417Y-12795D02*
X162402Y-11811D01*
X161417Y-12795D02*
Y-10827D01*
X160433Y-11811D02*
X161417Y-10827D01*
X158465Y-14764D02*
X162402D01*
X156496Y-16732D02*
X158465Y-14764D01*
X156496Y-16732D02*
Y-12795D01*
X158465Y-14764D01*
X152559D02*
X156496D01*
X158465Y-16732D02*
Y-12795D01*
X127480Y-30000D02*
Y30000D01*
Y-30000D02*
X147480D01*
Y-25000D01*
X167480D01*
Y-30000D02*
Y-25000D01*
Y-30000D02*
X187480D01*
Y30000D01*
X167480D02*
X187480D01*
X167480Y25000D02*
Y30000D01*
X147480Y25000D02*
X167480D01*
X147480D02*
Y30000D01*
X127480D02*
X147480D01*
X83661Y-15748D02*
Y-14764D01*
X73819Y-15748D02*
Y-14764D01*
X82677Y-12795D02*
X83661Y-11811D01*
X82677Y-12795D02*
Y-10827D01*
X81693Y-11811D02*
X82677Y-10827D01*
X79724Y-14764D02*
X83661D01*
X77756Y-16732D02*
X79724Y-14764D01*
X77756Y-16732D02*
Y-12795D01*
X79724Y-14764D01*
X73819D02*
X77756D01*
X79724Y-16732D02*
Y-12795D01*
X48740Y-30000D02*
Y30000D01*
Y-30000D02*
X68740D01*
Y-25000D01*
X88740D01*
Y-30000D02*
Y-25000D01*
Y-30000D02*
X108740D01*
Y30000D01*
X88740D02*
X108740D01*
X88740Y25000D02*
Y30000D01*
X68740Y25000D02*
X88740D01*
X68740D02*
Y30000D01*
X48740D02*
X68740D01*
X4921Y-15748D02*
Y-14764D01*
X-4921Y-15748D02*
Y-14764D01*
X3937Y-12795D02*
X4921Y-11811D01*
X3937Y-12795D02*
Y-10827D01*
X2953Y-11811D02*
X3937Y-10827D01*
X984Y-14764D02*
X4921D01*
X-984Y-16732D02*
X984Y-14764D01*
X-984Y-16732D02*
Y-12795D01*
X984Y-14764D01*
X-4921D02*
X-984D01*
X984Y-16732D02*
Y-12795D01*
X-30000Y-30000D02*
Y30000D01*
Y-30000D02*
X-10000D01*
Y-25000D01*
X10000D01*
Y-30000D02*
Y-25000D01*
Y-30000D02*
X30000D01*
Y30000D01*
X10000D02*
X30000D01*
X10000Y25000D02*
Y30000D01*
X-10000Y25000D02*
X10000D01*
X-10000D02*
Y30000D01*
X-30000D02*
X-10000D01*
X-73819Y-15748D02*
Y-14764D01*
X-83661Y-15748D02*
Y-14764D01*
X-74803Y-12795D02*
X-73819Y-11811D01*
X-74803Y-12795D02*
Y-10827D01*
X-75787Y-11811D02*
X-74803Y-10827D01*
X-77756Y-14764D02*
X-73819D01*
X-79724Y-16732D02*
X-77756Y-14764D01*
X-79724Y-16732D02*
Y-12795D01*
X-77756Y-14764D01*
X-83661D02*
X-79724D01*
X-77756Y-16732D02*
Y-12795D01*
X-108740Y-30000D02*
Y30000D01*
Y-30000D02*
X-88740D01*
Y-25000D01*
X-68740D01*
Y-30000D02*
Y-25000D01*
Y-30000D02*
X-48740D01*
Y30000D01*
X-68740D02*
X-48740D01*
X-68740Y25000D02*
Y30000D01*
X-88740Y25000D02*
X-68740D01*
X-88740D02*
Y30000D01*
X-108740D02*
X-88740D01*
X-152559Y-15748D02*
Y-14764D01*
X-162402Y-15748D02*
Y-14764D01*
X-153543Y-12795D02*
X-152559Y-11811D01*
X-153543Y-12795D02*
Y-10827D01*
X-154528Y-11811D02*
X-153543Y-10827D01*
X-156496Y-14764D02*
X-152559D01*
X-158465Y-16732D02*
X-156496Y-14764D01*
X-158465Y-16732D02*
Y-12795D01*
X-156496Y-14764D01*
X-162402D02*
X-158465D01*
X-156496Y-16732D02*
Y-12795D01*
X-187480Y-30000D02*
Y30000D01*
Y-30000D02*
X-167480D01*
Y-25000D01*
X-147480D01*
Y-30000D02*
Y-25000D01*
Y-30000D02*
X-127480D01*
Y30000D01*
X-147480D02*
X-127480D01*
X-147480Y25000D02*
Y30000D01*
X-167480Y25000D02*
X-147480D01*
X-167480D02*
Y30000D01*
X-187480D02*
X-167480D01*
D20*
X132936Y-23545D02*
X131936Y-22545D01*
X129937D01*
X128937Y-23545D01*
Y-24545D01*
X129937Y-25544D01*
X131936D01*
X132936Y-26544D01*
Y-27544D01*
X131936Y-28543D01*
X129937D01*
X128937Y-27544D01*
X134935Y-22545D02*
Y-28543D01*
X136934Y-26544D01*
X138934Y-28543D01*
Y-22545D01*
X144932D02*
X140933D01*
Y-25544D01*
X142932Y-24545D01*
X143932D01*
X144932Y-25544D01*
Y-27544D01*
X143932Y-28543D01*
X141933D01*
X140933Y-27544D01*
X54196Y-23545D02*
X53196Y-22545D01*
X51196D01*
X50197Y-23545D01*
Y-24545D01*
X51196Y-25544D01*
X53196D01*
X54196Y-26544D01*
Y-27544D01*
X53196Y-28543D01*
X51196D01*
X50197Y-27544D01*
X56195Y-22545D02*
Y-28543D01*
X58194Y-26544D01*
X60194Y-28543D01*
Y-22545D01*
X65192Y-28543D02*
Y-22545D01*
X62193Y-25544D01*
X66192D01*
X-24545Y-23545D02*
X-25544Y-22545D01*
X-27544D01*
X-28543Y-23545D01*
Y-24545D01*
X-27544Y-25544D01*
X-25544D01*
X-24545Y-26544D01*
Y-27544D01*
X-25544Y-28543D01*
X-27544D01*
X-28543Y-27544D01*
X-22545Y-22545D02*
Y-28543D01*
X-20546Y-26544D01*
X-18546Y-28543D01*
Y-22545D01*
X-16547Y-23545D02*
X-15548Y-22545D01*
X-13548D01*
X-12549Y-23545D01*
Y-24545D01*
X-13548Y-25544D01*
X-14548D01*
X-13548D01*
X-12549Y-26544D01*
Y-27544D01*
X-13548Y-28543D01*
X-15548D01*
X-16547Y-27544D01*
X-103285Y-23545D02*
X-104284Y-22545D01*
X-106284D01*
X-107283Y-23545D01*
Y-24545D01*
X-106284Y-25544D01*
X-104284D01*
X-103285Y-26544D01*
Y-27544D01*
X-104284Y-28543D01*
X-106284D01*
X-107283Y-27544D01*
X-101285Y-22545D02*
Y-28543D01*
X-99286Y-26544D01*
X-97287Y-28543D01*
Y-22545D01*
X-91289Y-28543D02*
X-95287D01*
X-91289Y-24545D01*
Y-23545D01*
X-92288Y-22545D01*
X-94288D01*
X-95287Y-23545D01*
X-182025D02*
X-183025Y-22545D01*
X-185024D01*
X-186024Y-23545D01*
Y-24545D01*
X-185024Y-25544D01*
X-183025D01*
X-182025Y-26544D01*
Y-27544D01*
X-183025Y-28543D01*
X-185024D01*
X-186024Y-27544D01*
X-180026Y-22545D02*
Y-28543D01*
X-178026Y-26544D01*
X-176027Y-28543D01*
Y-22545D01*
X-174028Y-28543D02*
X-172028D01*
X-173028D01*
Y-22545D01*
X-174028Y-23545D01*
M02*
