G04 Layer_Color=16711935*
%FSLAX25Y25*%
%MOIN*%
G70*
G01*
G75*
%ADD29C,0.03937*%
D29*
X244668Y41110D02*
G03*
X244514Y41350I-1730J-940D01*
G01*
X242831Y43598D02*
G03*
X242647Y43810I-1576J-1180D01*
G01*
X247189Y35492D02*
G03*
X247109Y35763I-1924J-418D01*
G01*
X246129Y38391D02*
G03*
X246012Y38649I-1845J-686D01*
G01*
X244666Y41113D02*
G03*
X244514Y41350I-1728J-943D01*
G01*
X242831Y43598D02*
G03*
X242646Y43812I-1576J-1180D01*
G01*
X246129Y38393D02*
G03*
X246010Y38652I-1845J-688D01*
G01*
X247827Y32465D02*
G03*
X247786Y32748I-1964J-136D01*
G01*
X247189Y35492D02*
G03*
X247110Y35761I-1924J-418D01*
G01*
X248032Y29528D02*
G03*
X248026Y29672I-1969J0D01*
G01*
X248032Y29528D02*
G03*
X248027Y29668I-1969J0D01*
G01*
X247826Y32469D02*
G03*
X247786Y32748I-1964J-140D01*
G01*
X232614Y50259D02*
G03*
X232342Y50339I-690J-1844D01*
G01*
X235499Y49161D02*
G03*
X235241Y49279I-943J-1728D01*
G01*
X235502Y49160D02*
G03*
X235243Y49278I-947J-1726D01*
G01*
X232612Y50260D02*
G03*
X232342Y50339I-688J-1845D01*
G01*
X229598Y50936D02*
G03*
X229320Y50976I-418J-1924D01*
G01*
X226518Y51176D02*
G03*
X226378Y51181I-140J-1964D01*
G01*
X226523Y51176D02*
G03*
X226378Y51181I-145J-1963D01*
G01*
X229598Y50936D02*
G03*
X229315Y50976I-418J-1924D01*
G01*
X240662Y45796D02*
G03*
X240449Y45981I-1393J-1391D01*
G01*
X238200Y47664D02*
G03*
X237964Y47815I-1180J-1576D01*
G01*
X240661Y45796D02*
G03*
X240449Y45981I-1392J-1392D01*
G01*
X238200Y47664D02*
G03*
X237961Y47817I-1180J-1576D01*
G01*
X248027Y-29668D02*
G03*
X248032Y-29528I-1964J140D01*
G01*
X248026Y-29672D02*
G03*
X248032Y-29528I-1963J145D01*
G01*
X247786Y-32748D02*
G03*
X247827Y-32465I-1924J418D01*
G01*
X247110Y-35761D02*
G03*
X247189Y-35492I-1845J688D01*
G01*
X247786Y-32748D02*
G03*
X247826Y-32469I-1924J418D01*
G01*
X247110Y-35761D02*
G03*
X247189Y-35492I-1845J688D01*
G01*
X246012Y-38649D02*
G03*
X246129Y-38393I-1728J943D01*
G01*
X246012Y-38649D02*
G03*
X246129Y-38393I-1728J943D01*
G01*
X244514Y-41350D02*
G03*
X244666Y-41113I-1576J1180D01*
G01*
X242647Y-43810D02*
G03*
X242831Y-43598I-1392J1392D01*
G01*
X244514Y-41350D02*
G03*
X244666Y-41113I-1576J1180D01*
G01*
X242646Y-43812D02*
G03*
X242831Y-43598I-1391J1393D01*
G01*
X240449Y-45981D02*
G03*
X240662Y-45796I-1180J1576D01*
G01*
X240449Y-45981D02*
G03*
X240661Y-45796I-1180J1576D01*
G01*
X237964Y-47815D02*
G03*
X238200Y-47664I-943J1728D01*
G01*
X237964Y-47815D02*
G03*
X238200Y-47664I-943J1728D01*
G01*
X235241Y-49279D02*
G03*
X235499Y-49161I-686J1845D01*
G01*
X232341Y-50339D02*
G03*
X232612Y-50260I-417J1924D01*
G01*
X235243Y-49278D02*
G03*
X235499Y-49161I-688J1845D01*
G01*
X232342Y-50339D02*
G03*
X232614Y-50259I-418J1924D01*
G01*
X229320Y-50976D02*
G03*
X229599Y-50936I-140J1964D01*
G01*
X229315Y-50976D02*
G03*
X229598Y-50936I-136J1964D01*
G01*
X226378Y-51181D02*
G03*
X226523Y-51176I0J1969D01*
G01*
X226378Y-51181D02*
G03*
X226518Y-51176I0J1969D01*
G01*
X-226378Y51181D02*
G03*
X-226518Y51176I0J-1969D01*
G01*
X-229316Y50976D02*
G03*
X-229598Y50936I136J-1964D01*
G01*
X-226378Y51181D02*
G03*
X-226522Y51176I0J-1969D01*
G01*
X-229320Y50976D02*
G03*
X-229598Y50936I140J-1964D01*
G01*
X-232342Y50339D02*
G03*
X-232612Y50260I418J-1924D01*
G01*
X-232342Y50339D02*
G03*
X-232612Y50260I418J-1924D01*
G01*
X-235243Y49278D02*
G03*
X-235499Y49161I688J-1845D01*
G01*
X-235243Y49278D02*
G03*
X-235499Y49161I688J-1845D01*
G01*
X-237964Y47815D02*
G03*
X-238200Y47664I943J-1728D01*
G01*
X-237964Y47815D02*
G03*
X-238200Y47664I943J-1728D01*
G01*
X-240449Y45981D02*
G03*
X-240661Y45796I1180J-1576D01*
G01*
X-240449Y45981D02*
G03*
X-240662Y45796I1180J-1576D01*
G01*
X-242646Y43812D02*
G03*
X-242831Y43598I1391J-1393D01*
G01*
X-242647Y43810D02*
G03*
X-242831Y43598I1392J-1392D01*
G01*
X-244514Y41350D02*
G03*
X-244666Y41113I1576J-1180D01*
G01*
X-244514Y41350D02*
G03*
X-244667Y41111I1576J-1180D01*
G01*
X-246010Y38651D02*
G03*
X-246129Y38393I1726J-946D01*
G01*
X-246012Y38649D02*
G03*
X-246129Y38391I1728J-943D01*
G01*
X-247109Y35763D02*
G03*
X-247189Y35492I1844J-690D01*
G01*
X-247110Y35761D02*
G03*
X-247190Y35489I1845J-688D01*
G01*
X-247785Y32751D02*
G03*
X-247826Y32469I1923J-422D01*
G01*
X-247786Y32748D02*
G03*
X-247826Y32466I1924J-418D01*
G01*
X-248026Y29671D02*
G03*
X-248032Y29528I1963J-144D01*
G01*
X-248027Y29668D02*
G03*
X-248032Y29528I1964J-140D01*
G01*
X-232612Y-50260D02*
G03*
X-232342Y-50339I688J1845D01*
G01*
X-235502Y-49160D02*
G03*
X-235243Y-49278I947J1726D01*
G01*
X-240661Y-45796D02*
G03*
X-240449Y-45981I1392J1392D01*
G01*
X-240662Y-45796D02*
G03*
X-240449Y-45981I1393J1391D01*
G01*
X-238200Y-47664D02*
G03*
X-237964Y-47815I1180J1576D01*
G01*
X-238200Y-47664D02*
G03*
X-237961Y-47817I1180J1576D01*
G01*
X-229598Y-50936D02*
G03*
X-229316Y-50976I418J1924D01*
G01*
X-226518Y-51176D02*
G03*
X-226378Y-51181I140J1964D01*
G01*
X-226522Y-51176D02*
G03*
X-226378Y-51181I144J1963D01*
G01*
X-235499Y-49161D02*
G03*
X-235243Y-49278I943J1728D01*
G01*
X-229601Y-50935D02*
G03*
X-229320Y-50976I422J1923D01*
G01*
X-232612Y-50260D02*
G03*
X-232339Y-50340I688J1845D01*
G01*
X-246129Y-38393D02*
G03*
X-246012Y-38649I1845J688D01*
G01*
X-247189Y-35492D02*
G03*
X-247110Y-35761I1924J418D01*
G01*
X-248032Y-29528D02*
G03*
X-248026Y-29671I1969J0D01*
G01*
X-247826Y-32466D02*
G03*
X-247786Y-32748I1964J137D01*
G01*
X-248032Y-29528D02*
G03*
X-248027Y-29668I1969J0D01*
G01*
X-247826Y-32469D02*
G03*
X-247785Y-32751I1964J140D01*
G01*
X-247190Y-35489D02*
G03*
X-247110Y-35761I1924J415D01*
G01*
X-242831Y-43598D02*
G03*
X-242646Y-43812I1576J1180D01*
G01*
X-246129Y-38393D02*
G03*
X-246010Y-38651I1845J688D01*
G01*
X-244667Y-41111D02*
G03*
X-244514Y-41350I1729J941D01*
G01*
X-244666Y-41113D02*
G03*
X-244514Y-41350I1728J943D01*
G01*
X-242831Y-43598D02*
G03*
X-242647Y-43810I1576J1180D01*
G01*
X244666Y41113D02*
X244668Y41110D01*
X246010Y38652D01*
X246012Y38649D01*
X242831Y43598D02*
X244514Y41350D01*
X246129Y38393D02*
X246129Y38391D01*
X247109Y35763D01*
X247110Y35761D01*
X240661Y45796D02*
X240662Y45796D01*
X242646Y43812D01*
X242647Y43810D01*
X247826Y32469D02*
X247827Y32465D01*
X248026Y29672D01*
X248027Y29668D01*
X247189Y35492D02*
X247786Y32748D01*
X235241Y49279D02*
X235243Y49278D01*
X232614Y50259D02*
X235241Y49279D01*
X232612Y50260D02*
X232614Y50259D01*
X237961Y47817D02*
X237964Y47815D01*
X235502Y49160D02*
X237961Y47817D01*
X235499Y49161D02*
X235502Y49160D01*
X229598Y50936D02*
X232342Y50339D01*
X229315Y50976D02*
X229320Y50976D01*
X226523Y51176D02*
X229315Y50976D01*
X226518Y51176D02*
X226523Y51176D01*
X238200Y47664D02*
X240449Y45981D01*
X248032Y-29528D02*
Y29528D01*
X248026Y-29672D02*
X248027Y-29668D01*
X247827Y-32465D02*
X248026Y-29672D01*
X247826Y-32469D02*
X247827Y-32465D01*
X247189Y-35492D02*
X247786Y-32748D01*
X246129Y-38393D02*
X247110Y-35761D01*
X244666Y-41113D02*
X246012Y-38649D01*
X242831Y-43598D02*
X244514Y-41350D01*
X242646Y-43812D02*
X242647Y-43810D01*
X240662Y-45796D02*
X242646Y-43812D01*
X240661Y-45796D02*
X240662Y-45796D01*
X238200Y-47664D02*
X240449Y-45981D01*
X235499Y-49161D02*
X237964Y-47815D01*
X235241Y-49279D02*
X235243Y-49278D01*
X232614Y-50259D02*
X235241Y-49279D01*
X232612Y-50260D02*
X232614Y-50259D01*
X232341Y-50339D02*
X232342Y-50339D01*
X229599Y-50936D02*
X232341Y-50339D01*
X229598Y-50936D02*
X229599Y-50936D01*
X229315Y-50976D02*
X229320Y-50976D01*
X226523Y-51176D02*
X229315Y-50976D01*
X226518Y-51176D02*
X226523Y-51176D01*
X-226378Y51181D02*
X226378D01*
X-226522Y51176D02*
X-226518Y51176D01*
X-229316Y50976D02*
X-226522Y51176D01*
X-229320Y50976D02*
X-229316Y50976D01*
X-232342Y50339D02*
X-229598Y50936D01*
X-235243Y49278D02*
X-232612Y50260D01*
X-237964Y47815D02*
X-235499Y49161D01*
X-240449Y45981D02*
X-238200Y47664D01*
X-240662Y45796D02*
X-240661Y45796D01*
X-242646Y43812D02*
X-240662Y45796D01*
X-242647Y43810D02*
X-242646Y43812D01*
X-244514Y41350D02*
X-242831Y43598D01*
X-244667Y41111D02*
X-244666Y41113D01*
X-246010Y38651D02*
X-244667Y41111D01*
X-246012Y38649D02*
X-246010Y38651D01*
X-246129Y38391D02*
X-246129Y38393D01*
X-247109Y35763D02*
X-246129Y38391D01*
X-247110Y35761D02*
X-247109Y35763D01*
X-247190Y35489D02*
X-247189Y35492D01*
X-247785Y32751D02*
X-247190Y35489D01*
X-247786Y32748D02*
X-247785Y32751D01*
X-247826Y32466D02*
X-247826Y32469D01*
X-248026Y29671D02*
X-247826Y32466D01*
X-248027Y29668D02*
X-248026Y29671D01*
X-248032Y-29528D02*
Y29528D01*
X-240449Y-45981D02*
X-238200Y-47664D01*
X-226378Y-51181D02*
X226378D01*
X-226522Y-51176D02*
X-226518Y-51176D01*
X-229316Y-50976D02*
X-226522Y-51176D01*
X-229320Y-50976D02*
X-229316Y-50976D01*
X-235502Y-49160D02*
X-235499Y-49161D01*
X-237961Y-47817D02*
X-235502Y-49160D01*
X-237964Y-47815D02*
X-237961Y-47817D01*
X-235243Y-49278D02*
X-232612Y-50260D01*
X-229601Y-50935D02*
X-229598Y-50936D01*
X-232339Y-50340D02*
X-229601Y-50935D01*
X-232342Y-50339D02*
X-232339Y-50340D01*
X-248027Y-29668D02*
X-248026Y-29671D01*
X-247826Y-32466D01*
X-247826Y-32469D01*
X-247786Y-32748D02*
X-247785Y-32751D01*
X-247190Y-35489D01*
X-247189Y-35492D01*
X-242647Y-43810D02*
X-242646Y-43812D01*
X-240662Y-45796D01*
X-240661Y-45796D01*
X-247110Y-35761D02*
X-246129Y-38393D01*
X-246012Y-38649D02*
X-246010Y-38651D01*
X-244667Y-41111D01*
X-244666Y-41113D01*
X-244514Y-41350D02*
X-242831Y-43598D01*
M02*
