G04 Layer_Color=16711935*
%FSLAX25Y25*%
%MOIN*%
G70*
G01*
G75*
%ADD21O,0.14579X0.08674*%
%ADD22C,0.06706*%
%ADD23C,0.20485*%
%ADD24C,0.10249*%
%ADD25C,0.31496*%
%ADD26R,0.06706X0.06706*%
%ADD27R,0.03556X0.04343*%
D21*
X142480Y10000D02*
D03*
X167480Y20000D02*
D03*
X63740Y10000D02*
D03*
X88740Y20000D02*
D03*
X-15000Y10000D02*
D03*
X10000Y20000D02*
D03*
X-93740Y10000D02*
D03*
X-68740Y20000D02*
D03*
X-172480Y10000D02*
D03*
X-147480Y20000D02*
D03*
D22*
X152480Y-20000D02*
D03*
X162480D02*
D03*
X73740D02*
D03*
X83740D02*
D03*
X-5000D02*
D03*
X5000D02*
D03*
X-83740D02*
D03*
X-73740D02*
D03*
X-162480D02*
D03*
X-152480D02*
D03*
X202756Y-25079D02*
D03*
Y-15079D02*
D03*
Y-5079D02*
D03*
Y4921D02*
D03*
Y14921D02*
D03*
Y24921D02*
D03*
Y34921D02*
D03*
D23*
X157480Y0D02*
D03*
X78740D02*
D03*
X0D02*
D03*
X-78740D02*
D03*
X-157480D02*
D03*
D24*
X137480D02*
D03*
X177480D02*
D03*
X58740D02*
D03*
X98740D02*
D03*
X-20000D02*
D03*
X20000D02*
D03*
X-98740D02*
D03*
X-58740D02*
D03*
X-177480D02*
D03*
X-137480D02*
D03*
D25*
X-226378Y29528D02*
D03*
Y-29528D02*
D03*
X226378D02*
D03*
Y29528D02*
D03*
D26*
X202756Y-35079D02*
D03*
D27*
X63976Y19685D02*
D03*
X69882D02*
D03*
X-14764D02*
D03*
X-8858D02*
D03*
X142717D02*
D03*
X148622D02*
D03*
X-93504D02*
D03*
X-87598D02*
D03*
X-172244D02*
D03*
X-166339D02*
D03*
X180118Y-19685D02*
D03*
X174213D02*
D03*
X101378D02*
D03*
X95472D02*
D03*
X22638D02*
D03*
X16732D02*
D03*
X-56102D02*
D03*
X-62008D02*
D03*
X-134843D02*
D03*
X-140748D02*
D03*
M02*
