G04 Layer_Color=32896*
%FSLAX25Y25*%
%MOIN*%
G70*
G01*
G75*
%ADD20C,0.01000*%
%ADD28C,0.00787*%
D20*
X149568Y25047D02*
Y31045D01*
X146570D01*
X145570Y30046D01*
Y28046D01*
X146570Y27047D01*
X149568D01*
X147569D02*
X145570Y25047D01*
X143570D02*
X141571D01*
X142571D01*
Y31045D01*
X143570Y30046D01*
X138572D02*
X137572Y31045D01*
X135573D01*
X134573Y30046D01*
Y26047D01*
X135573Y25047D01*
X137572D01*
X138572Y26047D01*
Y30046D01*
X70804Y25088D02*
Y31086D01*
X67805D01*
X66805Y30087D01*
Y28087D01*
X67805Y27088D01*
X70804D01*
X68805D02*
X66805Y25088D01*
X64806Y26088D02*
X63806Y25088D01*
X61807D01*
X60807Y26088D01*
Y30087D01*
X61807Y31086D01*
X63806D01*
X64806Y30087D01*
Y29087D01*
X63806Y28087D01*
X60807D01*
X-7847Y25032D02*
Y31030D01*
X-10846D01*
X-11846Y30030D01*
Y28030D01*
X-10846Y27031D01*
X-7847D01*
X-9847D02*
X-11846Y25032D01*
X-13845Y30030D02*
X-14845Y31030D01*
X-16844D01*
X-17844Y30030D01*
Y29030D01*
X-16844Y28030D01*
X-17844Y27031D01*
Y26031D01*
X-16844Y25032D01*
X-14845D01*
X-13845Y26031D01*
Y27031D01*
X-14845Y28030D01*
X-13845Y29030D01*
Y30030D01*
X-14845Y28030D02*
X-16844D01*
X-86647Y25063D02*
Y31061D01*
X-89646D01*
X-90646Y30061D01*
Y28062D01*
X-89646Y27062D01*
X-86647D01*
X-88647D02*
X-90646Y25063D01*
X-92645Y31061D02*
X-96644D01*
Y30061D01*
X-92645Y26063D01*
Y25063D01*
X-165405Y25010D02*
Y31008D01*
X-168404D01*
X-169404Y30009D01*
Y28009D01*
X-168404Y27010D01*
X-165405D01*
X-167405D02*
X-169404Y25010D01*
X-175402Y31008D02*
X-173403Y30009D01*
X-171404Y28009D01*
Y26010D01*
X-172403Y25010D01*
X-174403D01*
X-175402Y26010D01*
Y27010D01*
X-174403Y28009D01*
X-171404D01*
X181095Y-14275D02*
Y-8277D01*
X178095D01*
X177096Y-9276D01*
Y-11276D01*
X178095Y-12275D01*
X181095D01*
X179095D02*
X177096Y-14275D01*
X171098Y-8277D02*
X175096D01*
Y-11276D01*
X173097Y-10276D01*
X172097D01*
X171098Y-11276D01*
Y-13275D01*
X172097Y-14275D01*
X174097D01*
X175096Y-13275D01*
X102302Y-14317D02*
Y-8319D01*
X99303D01*
X98304Y-9319D01*
Y-11318D01*
X99303Y-12318D01*
X102302D01*
X100303D02*
X98304Y-14317D01*
X93305D02*
Y-8319D01*
X96304Y-11318D01*
X92306D01*
X23629Y-14275D02*
Y-8277D01*
X20630D01*
X19630Y-9276D01*
Y-11276D01*
X20630Y-12275D01*
X23629D01*
X21630D02*
X19630Y-14275D01*
X17631Y-9276D02*
X16631Y-8277D01*
X14632D01*
X13632Y-9276D01*
Y-10276D01*
X14632Y-11276D01*
X15632D01*
X14632D01*
X13632Y-12275D01*
Y-13275D01*
X14632Y-14275D01*
X16631D01*
X17631Y-13275D01*
X-55133Y-14290D02*
Y-8292D01*
X-58132D01*
X-59132Y-9291D01*
Y-11291D01*
X-58132Y-12290D01*
X-55133D01*
X-57132D02*
X-59132Y-14290D01*
X-65130D02*
X-61131D01*
X-65130Y-10291D01*
Y-9291D01*
X-64130Y-8292D01*
X-62131D01*
X-61131Y-9291D01*
X-133905Y-14315D02*
Y-8317D01*
X-136904D01*
X-137903Y-9317D01*
Y-11316D01*
X-136904Y-12316D01*
X-133905D01*
X-135904D02*
X-137903Y-14315D01*
X-139903D02*
X-141902D01*
X-140902D01*
Y-8317D01*
X-139903Y-9317D01*
X218504Y-2953D02*
Y3045D01*
X215505D01*
X214505Y2046D01*
Y46D01*
X215505Y-953D01*
X218504D01*
X212506Y-2953D02*
X210507D01*
X211506D01*
Y3045D01*
X212506Y2046D01*
X194882Y36479D02*
Y33813D01*
X193549Y32480D01*
X192216Y33813D01*
Y36479D01*
X188217Y35813D02*
X188884Y36479D01*
X190217D01*
X190883Y35813D01*
Y33147D01*
X190217Y32480D01*
X188884D01*
X188217Y33147D01*
X184219Y35813D02*
X184885Y36479D01*
X186218D01*
X186884Y35813D01*
Y33147D01*
X186218Y32480D01*
X184885D01*
X184219Y33147D01*
X192216Y25970D02*
X192883Y26636D01*
X194215D01*
X194882Y25970D01*
Y25304D01*
X194215Y24637D01*
X192883D01*
X192216Y23971D01*
Y23304D01*
X192883Y22638D01*
X194215D01*
X194882Y23304D01*
X190883Y26636D02*
Y22638D01*
X189550Y23971D01*
X188217Y22638D01*
Y26636D01*
X186884Y22638D02*
X185552D01*
X186218D01*
Y26636D01*
X186884Y25970D01*
X192216Y16127D02*
X192883Y16794D01*
X194215D01*
X194882Y16127D01*
Y15461D01*
X194215Y14795D01*
X192883D01*
X192216Y14128D01*
Y13462D01*
X192883Y12795D01*
X194215D01*
X194882Y13462D01*
X190883Y16794D02*
Y12795D01*
X189550Y14128D01*
X188217Y12795D01*
Y16794D01*
X184219Y12795D02*
X186884D01*
X184219Y15461D01*
Y16127D01*
X184885Y16794D01*
X186218D01*
X186884Y16127D01*
X192216Y6285D02*
X192883Y6951D01*
X194215D01*
X194882Y6285D01*
Y5619D01*
X194215Y4952D01*
X192883D01*
X192216Y4286D01*
Y3619D01*
X192883Y2953D01*
X194215D01*
X194882Y3619D01*
X190883Y6951D02*
Y2953D01*
X189550Y4286D01*
X188217Y2953D01*
Y6951D01*
X186884Y6285D02*
X186218Y6951D01*
X184885D01*
X184219Y6285D01*
Y5619D01*
X184885Y4952D01*
X185552D01*
X184885D01*
X184219Y4286D01*
Y3619D01*
X184885Y2953D01*
X186218D01*
X186884Y3619D01*
X192216Y-3557D02*
X192883Y-2891D01*
X194215D01*
X194882Y-3557D01*
Y-4224D01*
X194215Y-4890D01*
X192883D01*
X192216Y-5557D01*
Y-6223D01*
X192883Y-6890D01*
X194215D01*
X194882Y-6223D01*
X190883Y-2891D02*
Y-6890D01*
X189550Y-5557D01*
X188217Y-6890D01*
Y-2891D01*
X184885Y-6890D02*
Y-2891D01*
X186884Y-4890D01*
X184219D01*
X192216Y-14384D02*
X192883Y-13718D01*
X194215D01*
X194882Y-14384D01*
Y-15051D01*
X194215Y-15717D01*
X192883D01*
X192216Y-16384D01*
Y-17050D01*
X192883Y-17717D01*
X194215D01*
X194882Y-17050D01*
X190883Y-13718D02*
Y-17717D01*
X189550Y-16384D01*
X188217Y-17717D01*
Y-13718D01*
X184219D02*
X186884D01*
Y-15717D01*
X185552Y-15051D01*
X184885D01*
X184219Y-15717D01*
Y-17050D01*
X184885Y-17717D01*
X186218D01*
X186884Y-17050D01*
X194882Y-23560D02*
Y-27559D01*
X192216D01*
X188217Y-23560D02*
X190883D01*
Y-27559D01*
X188217D01*
X190883Y-25560D02*
X189550D01*
X186884Y-23560D02*
Y-27559D01*
X184885D01*
X184219Y-26893D01*
Y-24227D01*
X184885Y-23560D01*
X186884D01*
X192216Y-35054D02*
X192883Y-34387D01*
X194215D01*
X194882Y-35054D01*
Y-37719D01*
X194215Y-38386D01*
X192883D01*
X192216Y-37719D01*
Y-36386D01*
X193549D01*
X190883Y-38386D02*
Y-34387D01*
X188217Y-38386D01*
Y-34387D01*
X186884D02*
Y-38386D01*
X184885D01*
X184219Y-37719D01*
Y-35054D01*
X184885Y-34387D01*
X186884D01*
D28*
X66142Y18307D02*
X67716D01*
X66142Y21063D02*
X67716D01*
X-12598Y18307D02*
X-11024D01*
X-12598Y21063D02*
X-11024D01*
X144882Y18307D02*
X146457D01*
X144882Y21063D02*
X146457D01*
X-91339Y18307D02*
X-89764D01*
X-91339Y21063D02*
X-89764D01*
X-170079Y18307D02*
X-168504D01*
X-170079Y21063D02*
X-168504D01*
X176378Y-18307D02*
X177953D01*
X176378Y-21063D02*
X177953D01*
X97638Y-18307D02*
X99213D01*
X97638Y-21063D02*
X99213D01*
X18898Y-18307D02*
X20472D01*
X18898Y-21063D02*
X20472D01*
X-59842Y-18307D02*
X-58268D01*
X-59842Y-21063D02*
X-58268D01*
X-138583Y-18307D02*
X-137008D01*
X-138583Y-21063D02*
X-137008D01*
X197756Y39921D02*
X207756D01*
X197756Y-40079D02*
Y39921D01*
Y-40079D02*
X207756D01*
Y39921D01*
M02*
