M48
;Layer_Color=9474304
;FILE_FORMAT=2:5
INCH,LZ
;TYPE=PLATED
T1F00S00C0.02756
T2F00S00C0.03543
T3F00S00C0.05906
T4F00S00C0.07087
T5F00S00C0.12598
T6F00S00C0.15748
%
T01
X008374Y-002
X015248
X016248
X007374
X0005
X-0005
X-007374
X-008374
X-015248
X-016248
T02
X0202756Y-0035079
Y-0025079
Y-0015079
Y-0005079
Y0004921
Y0014921
Y0024921
Y0034921
T03
X-017248Y001
X-014748Y002
X-009374Y001
X-006874Y002
X-0015Y001
X001Y002
X006374Y001
X008874Y002
X014248Y001
X016748Y002
T04
X009874Y0
X013748
X017748
X005874
X002
X-002
X-005874
X-009874
X-013748
X-017748
T05
X0226378Y-0029528
X-0226378
Y0029528
X0226378
T06
X007874Y0
X015748
X0
X-007874
X-015748
M30
